<svg xmlns="http://www.w3.org/2000/svg" x="0px" y="0px" width="100" height="100" viewBox="0 0 30 30"
    fill="whitesmoke">
    <path
        d="M24,4H6C4.895,4,4,4.895,4,6v18c0,1.105,0.895,2,2,2h18c1.105,0,2-0.895,2-2V6C26,4.895,25.105,4,24,4z M20.806,19.73	c-1.761-3.91-7.23-5.284-7.256-8.115c-0.051-1.138,0.48-1.39,0.48-1.39c-0.948,2.579,3.464,4.652,4.98,5.764	s2.149,2.756,2.149,2.756c1.744-0.455,2.048-1.997,2.048-1.997l-4.803-7.812c0.152-0.379,0.531-1.542,0.531-1.542	c-0.758,0.051-2.451,1.139-2.451,1.139c-6.271-1.408-9.103,2.696-9.103,6.8c0,3.876,3.388,7.905,7.989,7.905	c4.407,0,5.895-2.969,5.895-2.969s-0.838,3.731-6.272,3.731c-4.915,0-8.985-4.208-8.985-8.818c0-7.584,6.8-9.371,10.622-8.063	c1.538-1.139,3.598-1.098,3.598-1.098l-0.609,2.563L24,16.646C23.916,19.174,20.806,19.73,20.806,19.73z"></path>
</svg>